<?xml version="1.0" encoding="utf-8"?>
<?xml-stylesheet type="text/xsl" href="rss1.xsl"?>
<rss version="2.0" xmlns:atom="http://www.w3.org/2005/Atom" xmlns:content="http://purl.org/rss/1.0/modules/content/" xmlns:dc="http://purl.org/dc/elements/1.1/" xmlns:media="http://search.yahoo.com/mrss/">
<channel>
 <title>Getty</title>
 <link>http://www.gettyimg.com/</link>
 <atom:link href="http://www.gettyimg.com/" rel="self" type="application/rss+xml" />

 
                <item>
                <title><![CDATA[【Requests】[REQ VID] - Kids Are Growing Up: A Story About a Kid Named LAROI]]></title>
                <link><![CDATA[https://sharemania.us/threads/kids-are-growing-up-a-story-about-a-kid-named-laroi.239166/]]></link>
                <description><![CDATA[<article>
<blockquote class="messageText SelectQuoteContainer ugc baseHtml">
<img src="https://m.imdb.com/title/tt31415596/mediaviewer/rm3734455809/?ref_=tt_ov_i" class="bbCodeImage LbImage" alt="[​IMG]" data-url="https://m.imdb.com/title/tt31415596/mediaviewer/rm3734455809/?ref_=tt_ov_i" style=""><a href="https://m.imdb.com/title/tt31415596/mediaviewer/rm3734455809/?ref_=tt_ov_i" target="_blank" class="externalLink" rel="nofollow">https://m.imdb.com/title/tt31415596/mediaviewer/rm3734455809/?ref_=tt_ov_i</a>
<div class="messageTextEndMarker">&nbsp;</div>
</blockquote>
</article>]]></description>
                <author><![CDATA[cinimodyeslah123]]></author>
                </item>

                
                <item>
                <title><![CDATA[【Requests】[REQ VID] - Miley Cyrus Work It Out]]></title>
                <link><![CDATA[https://sharemania.us/threads/miley-cyrus-work-it-out.239162/]]></link>
                <description><![CDATA[<article>
<blockquote class="messageText SelectQuoteContainer ugc baseHtml">
Can someone please post the official video of Miley Cyrus' "Work It Out"? Thank you very much!
<div class="messageTextEndMarker">&nbsp;</div>
</blockquote>
</article>]]></description>
                <author><![CDATA[celebfan]]></author>
                </item>

                
                <item>
                <title><![CDATA[【Interviews / TV shows / Others】HDTV - The Veronicas - Interview [7 Sunrise 4 March 2024 7HD]_1080i_DD2.0 [azamusic]]]></title>
                <link><![CDATA[https://sharemania.us/threads/the-veronicas-interview-7-sunrise-4-march-2024-7hd-_1080i_dd2-0-azamusic.239163/]]></link>
                <description><![CDATA[<article>
<blockquote class="messageText SelectQuoteContainer ugc baseHtml">
<div class="ToggleTriggerAnchor bbCodeSpoilerContainer">
<button type="button" class="button bbCodeSpoilerButton ToggleTrigger Tooltip JsOnly" data-target="> .SpoilerTarget"><span>Spoiler: <span class="SpoilerTitle">Media Info</span></span></button>
<div class="SpoilerTarget bbCodeSpoilerText">General<br>
ID : 1 (0x1)<br>
Complete name : \\192.168.1.1\data\aza\Sunrise\The Veronicas - Interview [7 Sunrise 4 March 2024 7HD]_azamusic.ts<br>
Format : MPEG-TS<br>
File size : 148 MiB<br>
Duration : 5 min 11 s<br>
Overall bit rate mode : Variable<br>
Overall bit rate : 3 987 kb/s<br>
Frame rate : 25.000 FPS<br>
<br>
Video<br>
ID : 256 (0x100)<br>
Menu ID : 1 (0x1)<br>
Format : AVC<br>
Format/Info : Advanced Video Codec<br>
Format profile : High@L4<br>
Format settings : CABAC / 4 Ref Frames<br>
Format settings, CABAC : Yes<br>
Format settings, Reference fra : 4 frames<br>
Format settings, GOP : M=8, N=24<br>
Codec ID : 27<br>
Duration : 5 min 11 s<br>
Bit rate : 3 402 kb/s<br>
Width : 1 920 pixels<br>
Height : 1 080 pixels<br>
Display aspect ratio : 16:9<br>
Frame rate : 25.000 FPS<br>
Color space : YUV<br>
Chroma subsampling : 4:2:0<br>
Bit depth : 8 bits<br>
Scan type : MBAFF<br>
Scan type, store method : Interleaved fields<br>
Scan order : Top Field First<br>
Bits/(Pixel*Frame) : 0.066<br>
Stream size : 126 MiB (85%)<br>
Color range : Limited<br>
<br>
Audio<br>
ID : 257 (0x101)<br>
Menu ID : 1 (0x1)<br>
Format : AC-3<br>
Format/Info : Audio Coding 3<br>
Commercial name : Dolby Digital<br>
Codec ID : 129<br>
Duration : 5 min 12 s<br>
Bit rate mode : Constant<br>
Bit rate : 384 kb/s<br>
Channel(s) : 2 channels<br>
Channel layout : L R<br>
Sampling rate : 48.0 kHz<br>
Frame rate : 31.250 FPS (1536 SPF)<br>
Compression mode : Lossy<br>
Delay relative to video : -285 ms<br>
Stream size : 14.3 MiB (10%)<br>
Language : English<br>
Service kind : Complete Main<br>
<br>
Menu<br>
ID : 4096 (0x1000)<br>
Menu ID : 1 (0x1)<br>
Format : AVC / AC-3<br>
Duration : 5 min 11 s<br>
List : 256 (0x100) (AVC) / 257 (0x101) (AC-3, English)<br>
Language : / English<br>
Service name : Service01<br>
Service provider : FFmpeg<br>
Service type : digital television</div>
</div>
<div class="bbCodeBlock bbCodeVfcHH HiddenContent">
<div class="attribution type">Hidden Content:</div>
<blockquote>You must reply before you can see the hidden data contained here.</blockquote>
</div><img src="https://www.aaronsouth.com/azamusic/veron_4march2024.png" class="bbCodeImage LbImage" alt="[​IMG]" data-url="https://www.aaronsouth.com/azamusic/veron_4march2024.png" style="">
<div class="messageTextEndMarker">&nbsp;</div>
</blockquote>
</article>]]></description>
                <author><![CDATA[azamusic]]></author>
                </item>

                
                <item>
                <title><![CDATA[【Requests】[REQ AUD] - Allie X - Black Eye (Extended Mix)]]></title>
                <link><![CDATA[https://sharemania.us/threads/allie-x-black-eye-extended-mix.239161/]]></link>
                <description><![CDATA[<article>
<blockquote class="messageText SelectQuoteContainer ugc baseHtml">
This was included with the deluxe edition of the Girl with No Face vinyl, anyone happen to have a rip by any chance?
<div class="messageTextEndMarker">&nbsp;</div>
</blockquote>
</article>]]></description>
                <author><![CDATA[final_distance]]></author>
                </item>

                
                <item>
                <title><![CDATA[【Instrumentals / Karaoke (lossless)】[REQ] Selena Gomez - Single Soon and Love On]]></title>
                <link><![CDATA[https://sharemania.us/threads/req-selena-gomez-single-soon-and-love-on.239165/]]></link>
                <description><![CDATA[<article>
<blockquote class="messageText SelectQuoteContainer ugc baseHtml">
can someone share any link with the oficial instrumental of Single Soon and Love On WAV or FLAC?
<div class="messageTextEndMarker">&nbsp;</div>
</blockquote>
</article>]]></description>
                <author><![CDATA[amnsuw]]></author>
                </item>

                
                <item>
                <title><![CDATA[【Requests】[REQ AUD] - Valeria - Freshly Squeezed]]></title>
                <link><![CDATA[https://sharemania.us/threads/valeria-freshly-squeezed.239164/]]></link>
                <description><![CDATA[<article>
<blockquote class="messageText SelectQuoteContainer ugc baseHtml">
i have the whole album from 2009 in 128 kbps.<br>
<br>
does anyone happen to have an itunes rip or amazon rip with 320 kbps quality before they were deleted from streaming services the album was so iconic thanks in advance<br>
<br>
<a href="https://www.discogs.com/release/1772066-Valeria-Freshly-Squeezed" target="_blank" class="externalLink" rel="nofollow">https://www.discogs.com/release/1772066-Valeria-Freshly-Squeezed</a>
<div class="messageTextEndMarker">&nbsp;</div>
</blockquote>
</article>]]></description>
                <author><![CDATA[tylergrandex]]></author>
                </item>

                </channel></rss>